<svg width="24" height="23" viewBox="0 0 24 23" fill="none" xmlns="http://www.w3.org/2000/svg">
<g id="location_on">
<g id="Vector">
<path d="M12 1.9165C8.13 1.9165 5 4.91609 5 8.62484C5 13.6561 12 21.0832 12 21.0832C12 21.0832 19 13.6561 19 8.62484C19 4.91609 15.87 1.9165 12 1.9165ZM7 8.62484C7 5.97984 9.24 3.83317 12 3.83317C14.76 3.83317 17 5.97984 17 8.62484C17 11.3848 14.12 15.5153 12 18.0932C9.92 15.5344 7 11.3561 7 8.62484Z" fill="#484C52"/>
<path d="M12 11.0207C13.3807 11.0207 14.5 9.94802 14.5 8.62484C14.5 7.30166 13.3807 6.229 12 6.229C10.6193 6.229 9.5 7.30166 9.5 8.62484C9.5 9.94802 10.6193 11.0207 12 11.0207Z" fill="#484C52"/>
</g>
</g>
</svg>
